<mxfile host="app.diagrams.net" modified="2023-11-23T14:25:17.777Z" agent="Mozilla/5.0 (Windows NT 10.0; Win64; x64) AppleWebKit/537.36 (KHTML, like Gecko) Chrome/119.0.0.0 Safari/537.36" etag="XnRcheRXB_6SMBMrmUHn" version="22.1.3" type="google">
  <diagram name="Página-1" id="dJx56YB7KGcAiy5-ZDgh">
    <mxGraphModel grid="1" page="1" gridSize="10" guides="1" tooltips="1" connect="1" arrows="1" fold="1" pageScale="1" pageWidth="827" pageHeight="1169" math="0" shadow="0">
      <root>
        <mxCell id="0" />
        <mxCell id="1" parent="0" />
        <mxCell id="mAbyE8N8R_fkNbjM-QfM-8" value="&lt;blockquote style=&quot;margin: 0 0 0 40px; border: none; padding: 0px;&quot;&gt;Sistema&lt;br&gt;&lt;/blockquote&gt;" style="verticalAlign=top;align=left;spacingTop=8;spacingLeft=2;spacingRight=12;shape=cube;size=10;direction=south;fontStyle=4;html=1;whiteSpace=wrap;" vertex="1" parent="1">
          <mxGeometry x="160" y="110" width="490" height="290" as="geometry" />
        </mxCell>
        <mxCell id="mAbyE8N8R_fkNbjM-QfM-2" value="Paciente" style="shape=umlActor;verticalLabelPosition=bottom;verticalAlign=top;html=1;outlineConnect=0;" vertex="1" parent="1">
          <mxGeometry x="80" y="225" width="30" height="60" as="geometry" />
        </mxCell>
        <mxCell id="mAbyE8N8R_fkNbjM-QfM-3" value="Visualizar registros de presión sanguinea" style="ellipse;whiteSpace=wrap;html=1;" vertex="1" parent="1">
          <mxGeometry x="180" y="232.5" width="140" height="45" as="geometry" />
        </mxCell>
        <mxCell id="mAbyE8N8R_fkNbjM-QfM-5" value="Registrar valor de presión sanguínea previamente" style="ellipse;whiteSpace=wrap;html=1;" vertex="1" parent="1">
          <mxGeometry x="360" y="310" width="170" height="65" as="geometry" />
        </mxCell>
        <mxCell id="mAbyE8N8R_fkNbjM-QfM-6" value="" style="endArrow=none;html=1;rounded=0;entryX=0;entryY=0.5;entryDx=0;entryDy=0;" edge="1" parent="1" source="mAbyE8N8R_fkNbjM-QfM-2" target="mAbyE8N8R_fkNbjM-QfM-3">
          <mxGeometry width="50" height="50" relative="1" as="geometry">
            <mxPoint x="40" y="400" as="sourcePoint" />
            <mxPoint x="90" y="350" as="targetPoint" />
          </mxGeometry>
        </mxCell>
        <mxCell id="mAbyE8N8R_fkNbjM-QfM-9" value="" style="endArrow=block;dashed=1;endFill=0;endSize=12;html=1;rounded=0;exitX=1;exitY=1;exitDx=0;exitDy=0;entryX=0;entryY=0;entryDx=0;entryDy=0;" edge="1" parent="1" source="mAbyE8N8R_fkNbjM-QfM-3" target="mAbyE8N8R_fkNbjM-QfM-5">
          <mxGeometry width="160" relative="1" as="geometry">
            <mxPoint x="80" y="430" as="sourcePoint" />
            <mxPoint x="240" y="430" as="targetPoint" />
          </mxGeometry>
        </mxCell>
        <mxCell id="mAbyE8N8R_fkNbjM-QfM-10" value="Include" style="edgeLabel;html=1;align=center;verticalAlign=middle;resizable=0;points=[];" vertex="1" connectable="0" parent="mAbyE8N8R_fkNbjM-QfM-9">
          <mxGeometry x="0.0798" y="2" relative="1" as="geometry">
            <mxPoint as="offset" />
          </mxGeometry>
        </mxCell>
        <mxCell id="F99jngF6yWqpzCxcKyht-1" value="Mostrar registro" style="ellipse;whiteSpace=wrap;html=1;" vertex="1" parent="1">
          <mxGeometry x="400" y="160" width="120" height="40" as="geometry" />
        </mxCell>
        <mxCell id="F99jngF6yWqpzCxcKyht-2" value="Extend" style="endArrow=open;endFill=1;endSize=12;html=1;rounded=0;exitX=0;exitY=1;exitDx=0;exitDy=0;entryX=1;entryY=0;entryDx=0;entryDy=0;" edge="1" parent="1" source="F99jngF6yWqpzCxcKyht-1" target="mAbyE8N8R_fkNbjM-QfM-3">
          <mxGeometry width="160" relative="1" as="geometry">
            <mxPoint x="280" y="70" as="sourcePoint" />
            <mxPoint x="290" y="240" as="targetPoint" />
            <Array as="points" />
          </mxGeometry>
        </mxCell>
        <mxCell id="SSLptJR9KLgfLqy15YFP-1" value="Mostrar gráfico con los registros en su respectiva interfaz" style="ellipse;whiteSpace=wrap;html=1;" vertex="1" parent="1">
          <mxGeometry x="450" y="218.75" width="160" height="72.5" as="geometry" />
        </mxCell>
        <mxCell id="SSLptJR9KLgfLqy15YFP-2" value="Extend" style="endArrow=open;endFill=1;endSize=12;html=1;rounded=0;exitX=0;exitY=0.5;exitDx=0;exitDy=0;" edge="1" parent="1" source="SSLptJR9KLgfLqy15YFP-1" target="mAbyE8N8R_fkNbjM-QfM-3">
          <mxGeometry width="160" relative="1" as="geometry">
            <mxPoint x="330" y="116" as="sourcePoint" />
            <mxPoint x="340" y="285" as="targetPoint" />
            <Array as="points" />
          </mxGeometry>
        </mxCell>
      </root>
    </mxGraphModel>
  </diagram>
</mxfile>
